<?xml version="1.0" encoding="utf-8"?>
<!-- Svg Vector Icons : http://www.onlinewebfonts.com/icon -->
<!DOCTYPE svg PUBLIC "-//W3C//DTD SVG 1.1//EN" "http://www.w3.org/Graphics/SVG/1.1/DTD/svg11.dtd">
<svg version="1.1" xmlns="http://www.w3.org/2000/svg" xmlns:xlink="http://www.w3.org/1999/xlink" x="0px" y="0px" viewBox="0 0 1000 1000" enable-background="new 0 0 1000 1000" xml:space="preserve">
<metadata> Svg Vector Icons : http://www.onlinewebfonts.com/icon </metadata>
<g><path d="M869.8,408.6H704.9L605,294.9c-22.9-26.7-56.2-42-91.3-42h-306c-42.6,0-53.6,34.3-60.2,54.7l-33.8,102.3C55.2,418,10,468.2,10,528.8c0,59.3,43.3,108.6,99.8,118.4c10,56.7,59.5,99.9,119,99.9c61.5,0,112.3-46.2,119.9-105.7h268.7c7.5,59.5,58.4,105.7,119.9,105.7c58.8,0,107.9-42.3,118.7-98.1h13.8c66.3,0,120.2-53.9,120.2-120.2C990,462.5,936.1,408.6,869.8,408.6z M513.6,298.7c21.8,0,42.4,9.5,56.7,26.2l73.5,83.6H453.7V298.7H513.6z M191,321.8c7.4-23.1,9.6-23.1,16.6-23.1h215.5v109.8H162.3L191,321.8z M228.8,701.3c-41.4,0-75.1-33.7-75.1-75.1c0-41.4,33.7-75.1,75.1-75.1c41.4,0,75.1,33.7,75.1,75.1C304,667.6,270.3,701.3,228.8,701.3z M737.3,701.3c-41.4,0-75.2-33.7-75.2-75.1c0-41.4,33.7-75.1,75.2-75.1c41.4,0,75.1,33.7,75.1,75.1C812.4,667.6,778.7,701.3,737.3,701.3z M869.8,603.2H856c-10.8-55.8-59.8-98.1-118.7-98.1c-61.5,0-112.4,46.2-119.9,105.7H348.7c-7.5-59.5-58.4-105.7-119.9-105.7c-57.8,0-106.2,40.8-118.1,95.1c-31.5-8.6-54.9-37.2-54.9-71.5c0-41,33.4-74.4,74.4-74.4h739.5c41,0,74.4,33.4,74.4,74.4C944.2,569.8,910.8,603.2,869.8,603.2z"/><path d="M538.9,494.1h-58.4c-8.4,0-15.3,6.8-15.3,15.3c0,8.4,6.8,15.3,15.3,15.3h58.4c8.5,0,15.3-6.8,15.3-15.3C554.2,500.9,547.4,494.1,538.9,494.1z"/></g>
</svg>